<svg version="1" xmlns="http://www.w3.org/2000/svg" width="682.667" height="682.667" viewBox="0 0 512.000000 512.000000"><path d="M342.3 33.5c-12.1 2.7-16.2 5.8-41 30.8-23.9 24.2-27.2 28.4-31.2 40.4-3.9 11.6-3.8 20 .7 46.2 2.3 12.8 4.2 23.5 4.4 23.6.2.2 10.4-7.4 22.6-17 31.1-24.4 100.4-77.9 103.6-80.1 2.2-1.4 2.6-2.2 2.1-4.3-1.2-5.4-8.4-18.8-12.4-23.3-11.7-13.2-32.3-20.1-48.8-16.3zM416 88.4c-2 .7-12.6 8.1-23.5 16.6C282 190.2 220.1 239.9 188.6 268.6c-5.9 5.4-12.6 11.4-14.7 13.2-2.1 1.9-3.9 3.9-3.9 4.5 0 1.6 54.1 55.7 55.7 55.7.6 0 2.6-1.8 4.5-3.9 1.8-2.1 7.8-8.8 13.2-14.7 20.7-22.7 58.6-69 102.7-125.4 35.3-45.1 75.5-97.4 76.6-99.5 2.3-4.5 2.4-7.4.3-9.5-2.3-2.3-2.4-2.3-7-.6zM434.6 110.6c-2.2 3.2-55.7 72.5-80.1 103.6-9.6 12.2-17.2 22.4-17 22.6.1.2 10.8 2.1 23.6 4.4 26.2 4.5 34.6 4.6 46.2.7 12.2-4.1 15.4-6.5 40-30.9 21-20.7 24.2-24.3 27.3-30.5 7.9-15.9 6.3-34.2-4.2-50.1-5-7.6-11.6-13-20.9-17.5-11.3-5.4-12.8-5.6-14.9-2.3zM121.9 333.7c-40.9 41.1-40.4 40.5-40.4 54.8 0 8 .3 9.6 2.9 14.2 3.5 6.3 19.4 22.2 25.6 25.4 3.8 2 6 2.4 13.5 2.4 14.3 0 13.7.5 54.8-40.4l35.7-35.6-28.3-28.3-28.2-28.2-35.6 35.7zM65.4 436.2C49 453 37.2 467.1 21.5 489l-4 5.5 5.5-4c21.6-15.5 41-31.7 56.3-47.2l9.7-9.9-5.3-5.2-5.3-5.2-13 13.2z"/></svg>